<?xml version="1.0" encoding="UTF-8"?>
<svg version="1.1" xmlns="http://www.w3.org/2000/svg" width="31" height="37">
<path d="M0 0 C10.23 0 20.46 0 31 0 C31 12.21 31 24.42 31 37 C20.77 37 10.54 37 0 37 C0 24.79 0 12.58 0 0 Z " fill="#13171D" transform="translate(0,0)"/>
<path d="M0 0 C0.99 0 1.98 0 3 0 C1.06375702 6.20477864 -1.25609141 12.10825719 -4 18 C-4.99 18 -5.98 18 -7 18 C-6.35534798 13.66695924 -4.81074878 10.13327935 -2.9375 6.1875 C-2.11572266 4.44533203 -2.11572266 4.44533203 -1.27734375 2.66796875 C-0.85582031 1.78753906 -0.43429688 0.90710937 0 0 Z " fill="#67A0DF" transform="translate(24,10)"/>
<path d="M0 0 C2.97 0.495 2.97 0.495 6 1 C6 1.66 6 2.32 6 3 C6.66 3 7.32 3 8 3 C8 2.34 8 1.68 8 1 C8.99 1 9.98 1 11 1 C10.34 2.32 9.68 3.64 9 5 C8.21625 4.835 7.4325 4.67 6.625 4.5 C4.11791961 3.9376293 4.11791961 3.9376293 2 4 C1.01 4 0.02 4 -1 4 C-0.67 2.68 -0.34 1.36 0 0 Z " fill="#67A0DF" transform="translate(5,17)"/>
</svg>
